<?xml version="1.0" ?>
<!-- Uploaded to: SVG Repo, www.svgrepo.com, Generator: SVG Repo Mixer Tools -->
<svg fill="#000000" width="800px" height="800px" viewBox="0 0 32 32" xmlns="http://www.w3.org/2000/svg">
<title/>
<g data-name="Layer 2" id="Layer_2">
<path d="M30,1H2A1,1,0,0,0,1,2V5A1,1,0,0,0,2,6V26a1,1,0,0,0-1,1v3a1,1,0,0,0,1,1H30a1,1,0,0,0,1-1V27a1,1,0,0,0-1-1V6a1,1,0,0,0,1-1V2A1,1,0,0,0,30,1ZM3,3H29V4H3ZM13,26V6h2V26ZM4,6h7V26H4ZM29,29H3V28H29Zm-1-3H17V6H28Z"/>
<path d="M19,19a1,1,0,0,0,1-1V14a1,1,0,0,0-2,0v4A1,1,0,0,0,19,19Z"/>
</g>
</svg>